<svg width="128" height="24" viewBox="0 0 128 24" fill="none" xmlns="http://www.w3.org/2000/svg">
<path d="M0.375658 21.3667C0.905696 21.8667 3.4565 24 7.49805 24C11.8046 24 14.8855 21.1667 14.8855 17.7C14.8855 13.6333 11.6058 11.8 7.76307 10.2333C5.01349 9.1 3.55589 7.93333 3.55589 6.03333C3.55589 4.8 4.51658 3.03334 7.29928 3.03334C9.22067 3.03334 10.4795 3.86667 11.7715 4.7C12.2353 5 12.6659 4.8 12.9309 4.36667L13.7591 3.1C14.0904 2.6 13.8254 2.13334 13.5604 1.96667C13.2291 1.73334 10.7445 0 7.43179 0C2.16454 0 0.176893 3.56667 0.176893 6.16667C0.176893 10.0333 2.82709 11.8 6.20608 13.2333C9.48569 14.6 11.2083 15.8667 11.2083 17.8667C11.2083 19.5667 9.75071 20.9667 7.46492 20.9667C4.91411 20.9667 3.72152 19.9667 2.16454 18.6667C1.80014 18.3667 1.30322 18.5 1.03821 18.9333L0.176893 20.3C-0.187508 20.8667 0.077511 21.1 0.375658 21.3667ZM23.1694 23.0333C23.1694 23.3667 23.4675 23.6667 23.7988 23.6667H25.9852C26.3165 23.6667 26.6146 23.3667 26.6146 23.0333V3.46667H32.0144C32.3788 3.46667 32.6438 3.16667 32.6438 2.83333V0.966668C32.6438 0.633333 32.3788 0.333333 32.0144 0.333333H17.7696C17.4052 0.333333 17.1402 0.633333 17.1402 0.966668V2.83333C17.1402 3.16667 17.4052 3.46667 17.7696 3.46667H23.1694V23.0333ZM36.5042 23.0333C36.5042 23.3667 36.7692 23.6667 37.1336 23.6667H39.2869C39.6182 23.6667 39.9163 23.3667 39.9163 23.0333V14.5333H44.9186L49.2583 23.2333C49.3908 23.5 49.5895 23.6667 49.9539 23.6667H52.4385C53.0017 23.6667 53.2336 23.1333 53.0017 22.7L48.4632 14.2333C51.3453 13.0667 53.3661 10.5333 53.3661 7.46667C53.3661 3.5 50.1196 0.333333 46.1443 0.333333H37.1336C36.7692 0.333333 36.5042 0.633333 36.5042 0.966668V23.0333ZM39.9826 11.6667V3.56667H45.8793C48.0326 3.56667 49.9208 5.36667 49.9208 7.53334C49.9208 9.83334 48.0326 11.6667 45.8793 11.6667H39.9826ZM55.9259 23.6667H58.013C58.4105 23.6667 58.6755 23.4 58.7749 23.1667L60.7957 18.6H71.6283L73.6822 23.1667C73.8147 23.4667 74.0466 23.6667 74.4442 23.6667H76.5312C77.0281 23.6667 77.2931 23.2333 77.0943 22.8L66.9905 0.366667C66.8911 0.166667 66.593 0 66.4273 0H66.096C65.9304 0 65.6323 0.166667 65.5329 0.366667L55.3628 22.8C55.164 23.2333 55.429 23.6667 55.9259 23.6667ZM62.0876 15.7333L66.1292 6.6H66.2948L70.3695 15.7333H62.0876ZM82.7923 23.0333C82.7923 23.3667 83.0904 23.6667 83.4217 23.6667H85.6081C85.9394 23.6667 86.2375 23.3667 86.2375 23.0333V3.46667H91.6373C92.0017 3.46667 92.2667 3.16667 92.2667 2.83333V0.966668C92.2667 0.633333 92.0017 0.333333 91.6373 0.333333H77.3925C77.0281 0.333333 76.7631 0.633333 76.7631 0.966668V2.83333C76.7631 3.16667 77.0281 3.46667 77.3925 3.46667H82.7923V23.0333ZM96.1271 23.0333C96.1271 23.3667 96.4252 23.6667 96.7565 23.6667H98.9429C99.2742 23.6667 99.5723 23.3667 99.5723 23.0333V0.966668C99.5723 0.633333 99.2742 0.333333 98.9429 0.333333H96.7565C96.4252 0.333333 96.1271 0.633333 96.1271 0.966668V23.0333ZM104.181 12.0333C104.181 18.7 109.449 24 116.074 24C122.7 24 128 18.7 128 12.0333C128 5.36667 122.7 0 116.074 0C109.449 0 104.181 5.36667 104.181 12.0333ZM107.494 12.0333C107.494 7.3 111.37 3.23333 116.074 3.23333C120.811 3.23333 124.687 7.3 124.687 12.0333C124.687 16.8 120.811 20.7667 116.074 20.7667C111.37 20.7667 107.494 16.8 107.494 12.0333Z" fill="white"/>
</svg>
